<svg height="60" width="203" xmlns="http://www.w3.org/2000/svg" viewBox="0 0 203.233 59.635">
    <g id="convas-logo-rgb" transform="translate(-12.49 -89.652)">
        <g transform="translate(12.49 89.652)">
            <g>
                <path d="M169.4,117.949q2.7-6.11,5.433-12.134H153.188l10.855,24.32Q166.714,124.064,169.4,117.949Z" transform="translate(-35.956 -105.794)" fill="#ff520e"/>
                <path d="M125.063,105.811v23.714l-21.339-23.714h-2.387v-.02l-24.129.013a19.651,19.651,0,0,1,7.542,1.491,20.364,20.364,0,0,1,10.93,10.6,19.423,19.423,0,0,1,1.695,8.131,19.721,19.721,0,0,1-1.5,7.537,20.209,20.209,0,0,1-10.565,10.9,19.578,19.578,0,0,1-8.1,1.663h4.4l0-.005,18.672-.019v.024h7.8V122.474l21.287,23.652H149.78l-17.9-40.314h-6.813Z" transform="translate(-23.284 -105.79)" fill="#ff520e"/>
                <path d="M231.888,105.815a15.058,15.058,0,0,1,3.17.4,24.436,24.436,0,0,1,3.357,1.013,21.93,21.93,0,0,1,3.082,1.441,14.136,14.136,0,0,1,2.4,1.665l-4.861,6.095q-1.077-.726-2.206-1.355a18.659,18.659,0,0,0-2.2-.958,7.405,7.405,0,0,0-2.543-.448,6.32,6.32,0,0,0-3.693.927,3.072,3.072,0,0,0-1.337,2.683,2.376,2.376,0,0,0,.485,1.442,5,5,0,0,0,1.3,1.183,11.626,11.626,0,0,0,1.9.992c.707.3,1.468.583,2.257.846a40.759,40.759,0,0,1,5.7,2.63,16,16,0,0,1,3.724,2.819,9,9,0,0,1,2.013,3.219,11.7,11.7,0,0,1,.587,3.755,11,11,0,0,1-1.02,4.684,11.686,11.686,0,0,1-2.79,3.817,13.387,13.387,0,0,1-4.241,2.54,14.9,14.9,0,0,1-5.332.927h19.869V105.814H231.888Z" transform="translate(-48.278 -105.794)" fill="#ff520e"/>
                <path d="M221.836,146.129a17.363,17.363,0,0,1-5.025-.731,18.62,18.62,0,0,1-4.574-2.091h.054a16.629,16.629,0,0,1-2.7-2.095c-.793-.747-1.337-1.293-1.642-1.631l5.875-5.422a7.605,7.605,0,0,0,1.269,1.212,15.027,15.027,0,0,0,2.007,1.357,14.422,14.422,0,0,0,2.373,1.1,6.724,6.724,0,0,0,2.368.455,8.161,8.161,0,0,0,1.916-.227,6.067,6.067,0,0,0,1.758-.7,3.974,3.974,0,0,0,1.289-1.277,3.5,3.5,0,0,0,.512-1.972,1.986,1.986,0,0,0-.31-.987,4.49,4.49,0,0,0-1.075-1.163,12.51,12.51,0,0,0-2.12-1.321,32.567,32.567,0,0,0-3.387-1.5,44.853,44.853,0,0,1-4.4-1.951,15.268,15.268,0,0,1-3.522-2.455,9.566,9.566,0,0,1-3.14-7.392,11.32,11.32,0,0,1,.91-4.552,10.674,10.674,0,0,1,2.567-3.667,11.675,11.675,0,0,1,4.01-2.425,14.845,14.845,0,0,1,5.11-.879H185.989l-17.725,40.314h9.993c.453-1.1.981-2.442,1.565-3.748s1.126-2.527,1.621-3.668h15.166l3.242,7.416h21.984ZM184.9,130.821l4.094-9.206,4.094,9.206Z" transform="translate(-38.471 -105.794)" fill="#ff520e"/>
                <path d="M52.544,140.675a19.8,19.8,0,0,1-4.575-6.348c-.095-.222-.171-.458-.268-.687H42.436a18.214,18.214,0,0,1-4.6,3.42,11.442,11.442,0,0,1-5.228,1.214,11.929,11.929,0,0,1-4.773-.96,12.319,12.319,0,0,1-3.892-2.624,12.193,12.193,0,0,1-2.63-3.9,11.913,11.913,0,0,1-.963-4.77,12.347,12.347,0,0,1,3.594-8.732,12.576,12.576,0,0,1,3.892-2.65,11.533,11.533,0,0,1,4.773-.99,11.883,11.883,0,0,1,4.886,1.069,14.653,14.653,0,0,1,4.382,3.053l5.481-5.534a21.617,21.617,0,0,0-6.922-4.779,19.523,19.523,0,0,0-15.365-.172,20.5,20.5,0,0,0-6.447,4.185,20.2,20.2,0,0,0-4.459,6.412,19.691,19.691,0,0,0-1.671,8.137A20.121,20.121,0,0,0,24.3,144.4a19.612,19.612,0,0,0,8.308,1.722H66.413a20.072,20.072,0,0,1-7.4-1.409A20.426,20.426,0,0,1,52.544,140.675Z" transform="translate(-12.49 -105.79)" fill="#ff520e"/>
                <path d="M66.073,136.268a12.257,12.257,0,0,0,3.9,2.622,12.325,12.325,0,0,0,9.541,0,12.219,12.219,0,0,0,6.521-6.522,12.262,12.262,0,0,0-.028-9.579,13.154,13.154,0,0,0-2.65-3.954,12.281,12.281,0,0,0-3.9-2.652,12.2,12.2,0,0,0-9.481,0,12.414,12.414,0,0,0-6.587,6.607,12.2,12.2,0,0,0-.956,4.8,11.632,11.632,0,0,0,.987,4.774A12.841,12.841,0,0,0,66.073,136.268Z" transform="translate(-20.82 -107.363)" fill="#ff520e"/>
            </g>
        </g>
    </g>
</svg>
