<svg xmlns="http://www.w3.org/2000/svg" viewBox="0 0 700 700" fill="#7AB51D">
<g transform="translate(0,700) scale(0.1,-0.1)" stroke="none">
<path d="M4566 5421 c-180 -181 -324 -330 -320 -333 5 -2 150 -4 321 -3 237 0 316 4 325 13 10 10 13 87 13 323 0 171 -2 314 -5 319 -3 5 -153 -139 -334 -319z"/>
<path d="M5164 5741 c-14 -14 0 -31 26 -31 22 0 30 5 30 18 0 12 -8 17 -26 17 -14 0 -28 -2 -30 -4z"/>
<path d="M5267 5728 c-5 -17 6 -18 164 -18 142 0 171 -2 175 -15 9 -21 34 -19 34 4 0 39 -24 44 -200 46 -155 1 -169 0 -173 -17z"/>
<path d="M5177 5652 c-26 -5 -15 -26 16 -30 18 -2 27 1 27 11 0 17 -17 25 -43 19z"/>
<path d="M5273 5642 c-7 -7 -13 -15 -13 -18 0 -2 63 -4 140 -4 127 0 140 2 140 18 0 15 -13 17 -127 17 -92 0 -130 -4 -140 -13z"/>
<path d="M5299 5568 c-29 -11 -26 -8 -34 -39 -4 -18 -1 -31 10 -43 9 -9 12 -16 6 -16 -6 0 -11 -8 -11 -18 0 -16 14 -17 173 -16 202 2 187 0 187 19 0 11 -12 15 -50 15 -49 0 -49 0 -39 26 12 33 -11 73 -44 75 -91 6 -178 4 -198 -3z m152 -27 c19 -1 43 -7 53 -14 15 -11 17 -17 7 -35 -11 -20 -20 -22 -101 -22 -80 0 -90 2 -104 22 -26 36 8 56 84 51 14 -1 41 -2 61 -2z"/>
<path d="M5298 5378 c-38 -13 -50 -87 -14 -89 6 0 3 -4 -8 -8 -16 -6 -17 -9 -4 -22 12 -11 48 -14 180 -13 90 0 170 4 176 8 23 14 1 26 -48 26 -49 0 -49 0 -39 26 10 29 -9 73 -34 75 -50 6 -187 4 -209 -3z m210 -43 c11 -10 11 -17 3 -34 -11 -19 -20 -21 -100 -21 -72 0 -91 3 -104 18 -14 15 -15 21 -4 34 6 9 21 18 32 20 42 7 161 -4 173 -17z"/>
<path d="M5297 5193 c-18 -5 -37 -40 -37 -69 0 -21 37 -54 60 -54 13 0 20 7 20 20 0 13 -7 20 -20 20 -27 0 -38 29 -17 45 9 6 27 11 39 9 13 -1 26 -3 31 -3 4 -1 7 -12 7 -25 0 -41 31 -69 76 -69 68 0 84 15 82 78 l-2 55 -110 -1 c-61 -1 -119 -3 -129 -6z m211 -47 c23 -22 3 -46 -37 -46 -30 0 -40 5 -48 23 -16 36 -6 48 35 41 21 -3 43 -12 50 -18z"/>
<path d="M5289 5002 c-22 -15 -27 -77 -6 -86 6 -3 -8 -5 -33 -5 -70 1 -78 0 -83 -14 -4 -11 30 -14 184 -14 168 0 189 2 187 16 -3 13 -21 16 -112 17 -94 1 -111 4 -123 20 -26 35 3 46 126 46 102 1 134 8 116 26 -13 14 -236 9 -256 -6z"/>
<path d="M5297 4828 c-49 -17 -49 -97 0 -116 39 -16 206 -10 227 7 16 14 22 67 8 88 -10 15 -53 31 -69 26 -23 -8 -14 -22 20 -31 32 -8 41 -26 24 -49 -13 -17 -188 -18 -205 -1 -20 20 -13 38 18 45 30 6 41 27 18 35 -7 3 -25 1 -41 -4z"/>
<path d="M4260 4780 c-12 -8 -15 -52 -15 -290 0 -154 -1 -280 -2 -280 -2 0 -25 13 -51 30 -113 69 -312 149 -427 171 -27 5 -61 12 -75 14 -118 25 -397 26 -520 1 -372 -74 -688 -272 -913 -572 -114 -151 -235 -420 -261 -579 -29 -170 -33 -269 -14 -282 21 -12 608 -10 625 2 9 7 19 34 23 61 15 92 19 109 39 167 115 333 414 562 745 571 430 11 792 -308 832 -733 3 -31 11 -61 19 -66 20 -16 611 -13 627 3 10 10 14 197 16 890 2 817 1 878 -15 890 -21 15 -609 17 -633 2z"/>
<path d="M5453 4672 c-12 -2 -41 -23 -65 -48 -44 -46 -81 -57 -92 -27 -7 18 17 43 41 43 7 0 13 7 13 15 0 16 -36 20 -57 7 -22 -14 -32 -57 -20 -83 26 -51 90 -41 148 22 39 42 84 53 96 23 8 -20 -10 -50 -28 -46 -15 4 -29 -17 -22 -33 5 -15 41 -8 66 13 21 18 22 60 2 89 -15 22 -45 31 -82 25z"/>
<path d="M5270 4504 c0 -20 -4 -23 -35 -20 -29 3 -35 1 -35 -15 0 -18 20 -25 58 -20 6 1 12 -7 12 -19 0 -11 7 -20 15 -20 8 0 15 8 15 19 0 17 9 19 110 18 118 0 140 8 140 49 0 17 -6 24 -20 24 -13 0 -18 -5 -14 -15 7 -18 13 -17 -113 -19 -98 -1 -103 0 -103 20 0 12 -6 21 -15 21 -9 0 -15 -10 -15 -23z"/>
<path d="M5283 4373 c-24 -18 -23 -81 2 -99 10 -8 27 -14 37 -14 27 0 22 27 -7 34 -48 12 -20 60 32 54 21 -2 29 -9 31 -28 9 -61 87 -92 140 -54 24 17 29 53 10 72 -9 9 -9 12 1 12 7 0 11 8 9 18 -3 15 -17 17 -120 17 -79 0 -123 -4 -135 -12z m225 -41 c18 -23 10 -36 -26 -43 -45 -9 -70 16 -63 64 2 13 75 -4 89 -21z"/>
<path d="M5318 4212 c-48 -6 -71 -56 -44 -97 19 -30 66 -40 66 -14 0 10 -9 19 -22 21 -46 7 -27 49 23 52 32 2 35 -1 44 -39 8 -33 16 -42 45 -51 37 -12 88 -3 101 18 4 7 7 34 7 60 l-1 48 -41 1 c-23 0 -66 1 -96 2 -30 1 -67 1 -82 -1z m178 -41 c18 -1 26 -32 13 -47 -12 -15 -57 -19 -75 -6 -6 4 -13 19 -16 35 -5 26 -4 27 31 23 20 -3 41 -5 47 -5z"/>
<path d="M5299 4032 c-18 -5 -39 -32 -39 -48 0 -7 7 -20 17 -29 10 -11 12 -19 6 -23 -20 -13 -24 -49 -8 -65 8 -9 11 -17 6 -19 -5 -2 -11 -9 -13 -17 -2 -10 22 -13 125 -13 170 1 163 0 150 13 -5 5 -59 12 -119 13 -135 4 -124 1 -124 31 0 29 -3 28 143 27 85 -1 97 2 97 16 0 15 -14 18 -112 19 -94 2 -114 5 -125 19 -24 32 1 42 110 42 140 1 137 0 137 17 0 8 -3 16 -7 16 -24 4 -232 4 -244 1z"/>
<path d="M5274 3725 c-16 -25 -11 -65 9 -65 6 0 2 -6 -8 -14 -18 -13 -18 -14 1 -23 10 -5 73 -9 139 -9 111 1 120 2 120 20 0 17 -10 19 -105 21 -140 3 -132 1 -128 33 l3 27 105 2 c135 2 127 1 134 18 5 13 -13 15 -124 15 -126 0 -130 -1 -146 -25z"/>
<path d="M5299 3563 c-16 -7 -30 -18 -30 -25 -1 -7 -3 -23 -4 -36 -1 -13 5 -33 15 -44 15 -18 29 -22 105 -23 48 -2 99 1 114 4 52 14 62 96 14 122 -31 17 -176 18 -214 2z m211 -39 c15 -15 1 -43 -24 -50 -11 -3 -57 -4 -101 -2 -76 3 -80 4 -83 27 -2 13 2 27 9 31 18 12 187 6 199 -6z"/>
<path d="M5285 3365 c-30 -30 -31 -54 -4 -89 19 -25 25 -26 112 -26 51 0 102 3 114 6 30 8 47 53 34 87 -14 37 -46 47 -147 47 -77 0 -87 -2 -109 -25z m224 -29 c14 -17 4 -46 -18 -47 -25 -1 -143 -1 -168 0 -17 1 -23 7 -23 24 0 13 3 27 7 30 3 4 48 7 98 7 66 0 96 -4 104 -14z"/>
<path d="M5267 3222 c-11 -16 9 -30 53 -37 24 -4 47 -8 51 -10 3 -2 25 -5 48 -6 68 -5 56 -15 -32 -28 -121 -18 -125 -20 -120 -42 3 -10 8 -19 12 -19 9 0 141 -20 170 -25 37 -7 37 -15 0 -16 -19 -1 -38 -2 -44 -3 -5 -1 -38 -5 -72 -10 -51 -6 -63 -11 -63 -26 0 -16 4 -17 63 -5 34 7 82 16 107 19 98 13 108 17 103 37 -3 10 -12 20 -19 20 -8 1 -17 2 -21 3 -5 1 -43 8 -86 16 -43 7 -76 14 -74 16 1 2 34 8 72 14 118 18 125 20 125 41 0 10 -2 19 -4 19 -2 0 -40 7 -83 15 -43 9 -94 18 -113 21 -19 3 -42 7 -52 10 -9 3 -19 1 -21 -4z"/>
<path d="M1143 2903 c-4 -10 -7 -100 -7 -200 0 -163 -2 -179 -15 -160 -60 88 -174 128 -288 102 -120 -28 -209 -126 -242 -265 -16 -70 -7 -216 18 -281 53 -139 164 -213 302 -202 89 7 158 45 205 113 l24 35 0 -57 c0 -59 5 -67 43 -73 53 -10 52 -25 53 497 0 284 -4 488 -9 496 -15 19 -76 15 -84 -5z m-142 -364 c78 -39 127 -130 133 -246 6 -115 -34 -216 -107 -268 -35 -25 -52 -30 -114 -32 -66 -2 -76 0 -120 30 -71 48 -106 122 -110 233 -4 152 56 260 165 295 42 13 114 7 153 -12z"/>
<path d="M1561 2899 c-6 -18 -7 -48 -2 -91 1 -9 63 -11 85 -2 11 4 16 19 16 44 0 60 -7 70 -51 70 -31 0 -41 -5 -48 -21z"/>
<path d="M2225 2621 c-63 -32 -114 -77 -138 -123 -13 -26 -14 -24 -12 43 1 50 -2 75 -12 85 -14 13 -51 13 -73 -1 -6 -4 -10 -128 -10 -350 0 -334 1 -345 20 -355 20 -11 59 1 61 18 0 4 1 95 3 202 2 186 3 197 27 250 50 107 132 170 221 170 74 0 125 -45 142 -127 4 -17 8 -134 8 -260 0 -125 4 -236 9 -245 11 -21 77 -25 84 -5 3 6 6 102 7 212 3 197 3 201 31 258 56 112 120 160 214 161 63 0 99 -22 127 -79 18 -35 20 -64 21 -292 1 -139 4 -256 7 -259 3 -3 19 -7 35 -9 59 -7 58 -10 57 277 0 276 -4 308 -48 376 -49 76 -199 103 -299 53 -53 -26 -124 -93 -139 -131 -9 -24 -10 -23 -28 24 -35 90 -95 132 -195 135 -49 2 -71 -3 -120 -28z"/>
<path d="M3573 2632 c-120 -43 -200 -136 -227 -266 -21 -100 -10 -184 36 -264 105 -185 321 -242 526 -139 51 26 64 59 36 87 -18 18 -21 18 -90 -16 -118 -58 -239 -50 -323 23 -67 56 -123 206 -82 217 9 2 129 4 267 4 138 -1 256 2 262 6 17 10 15 83 -4 146 -18 61 -49 113 -90 152 -67 62 -210 85 -311 50z m208 -84 c48 -27 83 -79 97 -143 6 -27 9 -51 7 -53 -2 -3 -240 -4 -393 -3 -49 1 -52 2 -48 24 13 75 70 146 141 178 57 26 147 25 196 -3z"/>
<path d="M4507 2616 c-69 -35 -106 -68 -133 -118 -8 -16 -16 -28 -17 -28 -1 0 0 32 1 70 4 75 -6 101 -36 95 -9 -2 -25 -4 -34 -4 -27 -1 -31 -52 -31 -385 0 -287 2 -310 18 -323 18 -12 60 -11 74 2 3 4 7 93 7 199 1 202 7 240 50 308 72 114 250 162 329 88 40 -38 49 -98 51 -345 1 -126 2 -236 3 -243 1 -9 14 -12 43 -10 35 3 43 7 48 28 11 46 4 492 -9 540 -30 111 -93 156 -220 159 -69 1 -83 -2 -144 -33z"/>
<path d="M5317 2638 c-45 -12 -103 -66 -123 -114 -31 -74 -5 -165 62 -216 19 -14 79 -45 133 -67 121 -52 162 -84 166 -131 6 -75 -57 -124 -158 -123 -45 1 -73 9 -132 38 -73 37 -76 37 -95 20 -30 -27 -24 -49 18 -78 65 -45 191 -68 282 -52 118 20 181 88 182 196 0 92 -51 143 -210 209 -107 44 -147 71 -160 107 -40 117 109 181 259 111 60 -27 69 -26 88 9 9 19 8 26 -8 42 -51 51 -203 76 -304 49z"/>
<path d="M6065 2631 c-119 -34 -150 -66 -105 -111 19 -19 20 -19 77 8 48 22 72 27 138 27 67 0 85 -4 111 -22 42 -30 66 -83 62 -135 l-3 -42 -73 -3 c-192 -6 -333 -66 -376 -158 -22 -46 -24 -141 -4 -180 38 -72 120 -117 216 -118 97 -1 164 37 227 127 l20 28 -1 -58 c-1 -33 3 -65 8 -71 16 -20 66 -16 78 6 16 32 13 474 -5 540 -38 146 -190 212 -370 162z m286 -406 c-3 -56 -37 -136 -75 -178 -32 -35 -100 -66 -144 -67 -45 0 -100 25 -128 58 -23 26 -29 52 -25 101 8 84 129 140 296 137 l79 -1 -3 -50z"/>
<path d="M1578 2633 c-10 -2 -18 -12 -19 -21 -6 -92 -3 -661 3 -674 6 -12 20 -18 43 -18 23 0 37 6 43 18 10 19 10 677 1 687 -9 8 -51 13 -71 8z"/>
</g>
</svg>
